<?xml version="1.0" encoding="UTF-8"?>
<svg xmlns="http://www.w3.org/2000/svg" width="1040" height="560" viewBox="0 0 1040 560"
     font-family="Sora, 'Noto Sans SC', 'PingFang SC', 'Microsoft YaHei', sans-serif">
  <rect width="100%" height="100%" rx="16" fill="#ffffff"/>
  
    <text x="520.0" y="32" text-anchor="middle" font-size="18" font-weight="700" fill="#14201f">
      查询药物：MG-132
    </text>
    <text x="520.0" y="54" text-anchor="middle" font-size="12.5" fill="#5a6b68">
      作用机制标签：Protein degradation　·　射线越短表示形态上越像中心药物　·　右侧名单避免文字挤在图上
    </text>
  <rect x="24" y="72" width="490" height="430" rx="14" fill="#f7faf9" stroke="#e2ebe7"/>
<text x="42" y="100" font-size="15" font-weight="700" fill="#14201f">补全前</text>
<text x="42" y="120" font-size="11" fill="#5a6b68">只在同一个药物图像库里找“长得像”的邻居</text>
<circle cx="154" cy="247" r="33.2" fill="none" stroke="#d0ddd8" stroke-width="1.2"/>
<circle cx="154" cy="247" r="61.8" fill="none" stroke="#d0ddd8" stroke-width="1.2"/>
<circle cx="154" cy="247" r="95.0" fill="none" stroke="#d0ddd8" stroke-width="1.2"/>
<circle cx="154" cy="247" r="9" fill="#14201f"/>
<text x="154" y="251" text-anchor="middle" font-size="8" fill="#fff" font-weight="700">中心</text>
<text x="274" y="136" font-size="11" font-weight="650" fill="#5a6b68">按相似程度排序（距离越小越像）</text>
<line x1="154" y1="247" x2="154.0" y2="165.4" stroke="#9aada7" stroke-width="1.15" stroke-linecap="round"/>
<circle cx="154.0" cy="165.4" r="6" fill="#334155"/>
<text x="154.0" y="168.6" text-anchor="middle" font-size="8" fill="#fff" font-weight="700">1</text>
<circle cx="274" cy="150" r="4.5" fill="#334155" stroke="#334155" stroke-width="1.6"/>
<text x="286" y="151" font-size="12.5" font-weight="550" fill="#14201f">#1  emetine</text>
<text x="286" y="165" font-size="10.5" fill="#5a6b68">同库药物 · 形态距离 0.68</text>
<line x1="154" y1="247" x2="231.8" y2="221.7" stroke="#9aada7" stroke-width="1.15" stroke-linecap="round"/>
<circle cx="231.8" cy="221.7" r="6" fill="#334155"/>
<text x="231.8" y="224.9" text-anchor="middle" font-size="8" fill="#fff" font-weight="700">2</text>
<circle cx="274" cy="186" r="4.5" fill="#334155" stroke="#334155" stroke-width="1.6"/>
<text x="286" y="187" font-size="12.5" font-weight="550" fill="#14201f">#2  proteasome inhibitor I</text>
<text x="286" y="201" font-size="10.5" fill="#5a6b68">同库药物 · 形态距离 0.69</text>
<line x1="154" y1="247" x2="208.6" y2="322.1" stroke="#9aada7" stroke-width="1.15" stroke-linecap="round"/>
<circle cx="208.6" cy="322.1" r="6" fill="#334155"/>
<text x="208.6" y="325.3" text-anchor="middle" font-size="8" fill="#fff" font-weight="700">3</text>
<circle cx="274" cy="222" r="4.5" fill="#334155" stroke="#334155" stroke-width="1.6"/>
<text x="286" y="223" font-size="12.5" font-weight="550" fill="#14201f">#3  simvastatin</text>
<text x="286" y="237" font-size="10.5" fill="#5a6b68">同库药物 · 形态距离 0.83</text>
<line x1="154" y1="247" x2="98.3" y2="323.7" stroke="#9aada7" stroke-width="1.15" stroke-linecap="round"/>
<circle cx="98.3" cy="323.7" r="6" fill="#334155"/>
<text x="98.3" y="326.9" text-anchor="middle" font-size="8" fill="#fff" font-weight="700">4</text>
<circle cx="274" cy="258" r="4.5" fill="#334155" stroke="#334155" stroke-width="1.6"/>
<text x="286" y="259" font-size="12.5" font-weight="550" fill="#14201f">#4  floxuridine</text>
<text x="286" y="273" font-size="10.5" fill="#5a6b68">同库药物 · 形态距离 0.86</text>
<line x1="154" y1="247" x2="63.6" y2="217.6" stroke="#9aada7" stroke-width="1.15" stroke-linecap="round"/>
<circle cx="63.6" cy="217.6" r="6" fill="#334155"/>
<text x="63.6" y="220.8" text-anchor="middle" font-size="8" fill="#fff" font-weight="700">5</text>
<circle cx="274" cy="294" r="4.5" fill="#334155" stroke="#334155" stroke-width="1.6"/>
<text x="286" y="295" font-size="12.5" font-weight="550" fill="#14201f">#5  camptothecin</text>
<text x="286" y="309" font-size="10.5" fill="#5a6b68">同库药物 · 形态距离 0.86</text>
  <rect x="526" y="72" width="490" height="430" rx="14" fill="#f7faf9" stroke="#e2ebe7"/>
<text x="544" y="100" font-size="15" font-weight="700" fill="#14201f">补全后</text>
<text x="544" y="120" font-size="11" fill="#5a6b68">在药物 + 基因敲除 + 基因过表达的联合空间里找邻居</text>
<circle cx="656" cy="247" r="33.2" fill="none" stroke="#d0ddd8" stroke-width="1.2"/>
<circle cx="656" cy="247" r="61.8" fill="none" stroke="#d0ddd8" stroke-width="1.2"/>
<circle cx="656" cy="247" r="95.0" fill="none" stroke="#d0ddd8" stroke-width="1.2"/>
<circle cx="656" cy="247" r="9" fill="#14201f"/>
<text x="656" y="251" text-anchor="middle" font-size="8" fill="#fff" font-weight="700">中心</text>
<text x="776" y="136" font-size="11" font-weight="650" fill="#5a6b68">按相似程度排序（距离越小越像）</text>
<line x1="656" y1="247" x2="656.0" y2="156.8" stroke="#9aada7" stroke-width="1.15" stroke-linecap="round"/>
<circle cx="656.0" cy="156.8" r="6" fill="#334155"/>
<text x="656.0" y="160.0" text-anchor="middle" font-size="8" fill="#fff" font-weight="700">1</text>
<circle cx="776" cy="150" r="4.5" fill="#334155" stroke="#334155" stroke-width="1.6"/>
<text x="788" y="151" font-size="12.5" font-weight="550" fill="#14201f">#1  emetine</text>
<text x="788" y="165" font-size="10.5" fill="#5a6b68">同库药物 · 形态距离 0.56</text>
<line x1="656" y1="247" x2="743.5" y2="218.6" stroke="#0f766e" stroke-width="3.0" stroke-linecap="round"/>
<polygon points="743.5,211.1 748.7,218.6 743.5,226.1 738.3,218.6" fill="#ffffff" stroke="#2563eb" stroke-width="1.8"/>
<text x="743.5" y="221.8" text-anchor="middle" font-size="8" fill="#2563eb" font-weight="700">2</text>
<circle cx="776" cy="186" r="4.5" fill="#ffffff" stroke="#2563eb" stroke-width="1.6"/>
<text x="788" y="187" font-size="12.5" font-weight="700" fill="#0f766e">#2  SKLB1002</text>
<text x="788" y="201" font-size="10.5" fill="#5a6b68">跨库药物 · 形态距离 0.58 · 文献焦点边</text>
<line x1="656" y1="247" x2="711.2" y2="323.0" stroke="#0f766e" stroke-width="3.0" stroke-linecap="round"/>
<polygon points="711.2,315.5 716.4,323.0 711.2,330.5 706.0,323.0" fill="#ffffff" stroke="#c2410c" stroke-width="1.8"/>
<text x="711.2" y="326.2" text-anchor="middle" font-size="8" fill="#c2410c" font-weight="700">3</text>
<circle cx="776" cy="222" r="4.5" fill="#ffffff" stroke="#c2410c" stroke-width="1.6"/>
<text x="788" y="223" font-size="12.5" font-weight="700" fill="#0f766e">#3  BRD4</text>
<text x="788" y="237" font-size="10.5" fill="#5a6b68">基因敲除 · 形态距离 0.59 · 文献焦点边</text>
<line x1="656" y1="247" x2="600.3" y2="323.7" stroke="#9aada7" stroke-width="1.15" stroke-linecap="round"/>
<circle cx="600.3" cy="323.7" r="6" fill="#334155"/>
<text x="600.3" y="326.9" text-anchor="middle" font-size="8" fill="#fff" font-weight="700">4</text>
<circle cx="776" cy="258" r="4.5" fill="#334155" stroke="#334155" stroke-width="1.6"/>
<text x="788" y="259" font-size="12.5" font-weight="550" fill="#14201f">#4  proteasome inhibitor I</text>
<text x="788" y="273" font-size="10.5" fill="#5a6b68">同库药物 · 形态距离 0.60</text>
<line x1="656" y1="247" x2="565.6" y2="217.6" stroke="#9aada7" stroke-width="1.15" stroke-linecap="round"/>
<circle cx="565.6" cy="217.6" r="6" fill="#334155"/>
<text x="565.6" y="220.8" text-anchor="middle" font-size="8" fill="#fff" font-weight="700">5</text>
<circle cx="776" cy="294" r="4.5" fill="#334155" stroke="#334155" stroke-width="1.6"/>
<text x="788" y="295" font-size="12.5" font-weight="550" fill="#14201f">#5  simvastatin</text>
<text x="788" y="309" font-size="10.5" fill="#5a6b68">同库药物 · 形态距离 0.60</text>
  
    <g transform="translate(36,532)">
      <circle cx="0" cy="0" r="5" fill="#334155"/>
      <text x="10" y="3.5" font-size="11" fill="#5a6b68">同库药物邻居</text>
      <polygon points="130,-6 136,0 130,6 124,0" fill="none" stroke="#2563eb" stroke-width="1.6"/>
      <text x="142" y="3.5" font-size="11" fill="#5a6b68">跨库药物</text>
      <polygon points="240,-6 246,0 240,6 234,0" fill="none" stroke="#c2410c" stroke-width="1.6"/>
      <text x="252" y="3.5" font-size="11" fill="#5a6b68">基因敲除</text>
      <polygon points="350,-6 356,0 350,6 344,0" fill="none" stroke="#7c3aed" stroke-width="1.6"/>
      <text x="362" y="3.5" font-size="11" fill="#5a6b68">基因过表达</text>
      <line x1="470" y1="0" x2="505" y2="0" stroke="#0f766e" stroke-width="3"/>
      <text x="512" y="3.5" font-size="11" fill="#5a6b68">文献关注的焦点边（粗线）</text>
    </g>
</svg>
