<?xml version="1.0" encoding="UTF-8"?>
<svg xmlns="http://www.w3.org/2000/svg" width="1040" height="560" viewBox="0 0 1040 560"
     font-family="Sora, 'Noto Sans SC', 'PingFang SC', 'Microsoft YaHei', sans-serif">
  <rect width="100%" height="100%" rx="16" fill="#ffffff"/>
  
    <text x="520.0" y="32" text-anchor="middle" font-size="18" font-weight="700" fill="#14201f">
      Query / 查询药物：PP-2
    </text>
    <text x="520.0" y="54" text-anchor="middle" font-size="12.5" fill="#5a6b68">
      MoA：Epithelial · shorter ray = more similar · ranked list on the right
    </text>
  <rect x="24" y="72" width="490" height="430" rx="14" fill="#f7faf9" stroke="#e2ebe7"/>
<text x="42" y="98" font-size="15" font-weight="700" fill="#14201f">补全前 · Before</text>
<text x="42" y="118" font-size="11" fill="#5a6b68">Same drug library only · 只在同一药物库找邻居</text>
<circle cx="154" cy="247" r="33.2" fill="none" stroke="#d0ddd8" stroke-width="1.2"/>
<circle cx="154" cy="247" r="61.8" fill="none" stroke="#d0ddd8" stroke-width="1.2"/>
<circle cx="154" cy="247" r="95.0" fill="none" stroke="#d0ddd8" stroke-width="1.2"/>
<circle cx="154" cy="247" r="9" fill="#14201f"/>
<text x="154" y="251" text-anchor="middle" font-size="8" fill="#fff" font-weight="700">中心</text>
<text x="274" y="136" font-size="11" font-weight="650" fill="#5a6b68">Ranked · 距离越小越像</text>
<line x1="154" y1="247" x2="154.0" y2="159.3" stroke="#9aada7" stroke-width="1.15" stroke-linecap="round"/>
<circle cx="154.0" cy="159.3" r="6" fill="#334155"/>
<text x="154.0" y="162.5" text-anchor="middle" font-size="8" fill="#fff" font-weight="700">1</text>
<circle cx="274" cy="150" r="4.5" fill="#334155" stroke="#334155" stroke-width="1.6"/>
<text x="286" y="151" font-size="12.5" font-weight="550" fill="#14201f">#1  colchicine</text>
<text x="286" y="165" font-size="10.5" fill="#5a6b68">同库药物 · 形态距离 0.63</text>
<line x1="154" y1="247" x2="242.3" y2="218.3" stroke="#9aada7" stroke-width="1.15" stroke-linecap="round"/>
<circle cx="242.3" cy="218.3" r="6" fill="#334155"/>
<text x="242.3" y="221.5" text-anchor="middle" font-size="8" fill="#fff" font-weight="700">2</text>
<circle cx="274" cy="186" r="4.5" fill="#334155" stroke="#334155" stroke-width="1.6"/>
<text x="286" y="187" font-size="12.5" font-weight="550" fill="#14201f">#2  simvastatin</text>
<text x="286" y="201" font-size="10.5" fill="#5a6b68">同库药物 · 形态距离 0.69</text>
<line x1="154" y1="247" x2="209.5" y2="323.4" stroke="#9aada7" stroke-width="1.15" stroke-linecap="round"/>
<circle cx="209.5" cy="323.4" r="6" fill="#334155"/>
<text x="209.5" y="326.6" text-anchor="middle" font-size="8" fill="#fff" font-weight="700">3</text>
<circle cx="274" cy="222" r="4.5" fill="#334155" stroke="#334155" stroke-width="1.6"/>
<text x="286" y="223" font-size="12.5" font-weight="550" fill="#14201f">#3  latrunculin B</text>
<text x="286" y="237" font-size="10.5" fill="#5a6b68">同库药物 · 形态距离 0.71</text>
<line x1="154" y1="247" x2="98.2" y2="323.8" stroke="#9aada7" stroke-width="1.15" stroke-linecap="round"/>
<circle cx="98.2" cy="323.8" r="6" fill="#334155"/>
<text x="98.2" y="327.0" text-anchor="middle" font-size="8" fill="#fff" font-weight="700">4</text>
<circle cx="274" cy="258" r="4.5" fill="#334155" stroke="#334155" stroke-width="1.6"/>
<text x="286" y="259" font-size="12.5" font-weight="550" fill="#14201f">#4  chlorambucil</text>
<text x="286" y="273" font-size="10.5" fill="#5a6b68">同库药物 · 形态距离 0.71</text>
<line x1="154" y1="247" x2="63.6" y2="217.6" stroke="#9aada7" stroke-width="1.15" stroke-linecap="round"/>
<circle cx="63.6" cy="217.6" r="6" fill="#334155"/>
<text x="63.6" y="220.8" text-anchor="middle" font-size="8" fill="#fff" font-weight="700">5</text>
<circle cx="274" cy="294" r="4.5" fill="#334155" stroke="#334155" stroke-width="1.6"/>
<text x="286" y="295" font-size="12.5" font-weight="550" fill="#14201f">#5  AZ258</text>
<text x="286" y="309" font-size="10.5" fill="#5a6b68">同库药物 · 形态距离 0.71</text>
  <rect x="526" y="72" width="490" height="430" rx="14" fill="#f7faf9" stroke="#e2ebe7"/>
<text x="544" y="98" font-size="15" font-weight="700" fill="#14201f">补全后 · After</text>
<text x="544" y="118" font-size="11" fill="#5a6b68">Drug + KO + OE joint space · 药物+敲除+过表达联合空间</text>
<circle cx="656" cy="247" r="33.2" fill="none" stroke="#d0ddd8" stroke-width="1.2"/>
<circle cx="656" cy="247" r="61.8" fill="none" stroke="#d0ddd8" stroke-width="1.2"/>
<circle cx="656" cy="247" r="95.0" fill="none" stroke="#d0ddd8" stroke-width="1.2"/>
<circle cx="656" cy="247" r="9" fill="#14201f"/>
<text x="656" y="251" text-anchor="middle" font-size="8" fill="#fff" font-weight="700">中心</text>
<text x="776" y="136" font-size="11" font-weight="650" fill="#5a6b68">Ranked · 距离越小越像</text>
<line x1="656" y1="247" x2="656.0" y2="162.6" stroke="#0f766e" stroke-width="3.0" stroke-linecap="round"/>
<polygon points="656.0,155.1 661.2,162.6 656.0,170.1 650.8,162.6" fill="#ffffff" stroke="#7c3aed" stroke-width="1.8"/>
<text x="656.0" y="165.8" text-anchor="middle" font-size="8" fill="#7c3aed" font-weight="700">1</text>
<circle cx="776" cy="150" r="4.5" fill="#ffffff" stroke="#7c3aed" stroke-width="1.6"/>
<text x="788" y="151" font-size="12.5" font-weight="700" fill="#0f766e">#1  FLT3</text>
<text x="788" y="165" font-size="10.5" fill="#5a6b68">基因过表达 · 形态距离 0.44 · 文献焦点边</text>
<line x1="656" y1="247" x2="740.2" y2="219.6" stroke="#0f766e" stroke-width="3.0" stroke-linecap="round"/>
<polygon points="740.2,212.1 745.4,219.6 740.2,227.1 735.0,219.6" fill="#ffffff" stroke="#7c3aed" stroke-width="1.8"/>
<text x="740.2" y="222.8" text-anchor="middle" font-size="8" fill="#7c3aed" font-weight="700">2</text>
<circle cx="776" cy="186" r="4.5" fill="#ffffff" stroke="#7c3aed" stroke-width="1.6"/>
<text x="788" y="187" font-size="12.5" font-weight="700" fill="#0f766e">#2  HRH4</text>
<text x="788" y="201" font-size="10.5" fill="#5a6b68">基因过表达 · 形态距离 0.48 · 文献焦点边</text>
<line x1="656" y1="247" x2="709.6" y2="320.8" stroke="#0f766e" stroke-width="3.0" stroke-linecap="round"/>
<polygon points="709.6,313.3 714.8,320.8 709.6,328.3 704.4,320.8" fill="#ffffff" stroke="#7c3aed" stroke-width="1.8"/>
<text x="709.6" y="324.0" text-anchor="middle" font-size="8" fill="#7c3aed" font-weight="700">3</text>
<circle cx="776" cy="222" r="4.5" fill="#ffffff" stroke="#7c3aed" stroke-width="1.6"/>
<text x="788" y="223" font-size="12.5" font-weight="700" fill="#0f766e">#3  CASP3</text>
<text x="788" y="237" font-size="10.5" fill="#5a6b68">基因过表达 · 形态距离 0.50 · 文献焦点边</text>
<line x1="656" y1="247" x2="600.7" y2="323.2" stroke="#0f766e" stroke-width="3.0" stroke-linecap="round"/>
<polygon points="600.7,315.7 605.9,323.2 600.7,330.7 595.5,323.2" fill="#ffffff" stroke="#7c3aed" stroke-width="1.8"/>
<text x="600.7" y="326.4" text-anchor="middle" font-size="8" fill="#7c3aed" font-weight="700">4</text>
<circle cx="776" cy="258" r="4.5" fill="#ffffff" stroke="#7c3aed" stroke-width="1.6"/>
<text x="788" y="259" font-size="12.5" font-weight="700" fill="#0f766e">#4  CYP3A4</text>
<text x="788" y="273" font-size="10.5" fill="#5a6b68">基因过表达 · 形态距离 0.52 · 文献焦点边</text>
<line x1="656" y1="247" x2="565.6" y2="217.6" stroke="#0f766e" stroke-width="3.0" stroke-linecap="round"/>
<polygon points="565.6,210.1 570.8,217.6 565.6,225.1 560.4,217.6" fill="#ffffff" stroke="#7c3aed" stroke-width="1.8"/>
<text x="565.6" y="220.8" text-anchor="middle" font-size="8" fill="#7c3aed" font-weight="700">5</text>
<circle cx="776" cy="294" r="4.5" fill="#ffffff" stroke="#7c3aed" stroke-width="1.6"/>
<text x="788" y="295" font-size="12.5" font-weight="700" fill="#0f766e">#5  AVPR1A</text>
<text x="788" y="309" font-size="10.5" fill="#5a6b68">基因过表达 · 形态距离 0.53 · 文献焦点边</text>
  
    <g transform="translate(36,532)">
      <circle cx="0" cy="0" r="5" fill="#334155"/>
      <text x="10" y="3.5" font-size="11" fill="#5a6b68">同库药物邻居</text>
      <polygon points="130,-6 136,0 130,6 124,0" fill="none" stroke="#2563eb" stroke-width="1.6"/>
      <text x="142" y="3.5" font-size="11" fill="#5a6b68">跨库药物</text>
      <polygon points="240,-6 246,0 240,6 234,0" fill="none" stroke="#c2410c" stroke-width="1.6"/>
      <text x="252" y="3.5" font-size="11" fill="#5a6b68">基因敲除</text>
      <polygon points="350,-6 356,0 350,6 344,0" fill="none" stroke="#7c3aed" stroke-width="1.6"/>
      <text x="362" y="3.5" font-size="11" fill="#5a6b68">基因过表达</text>
      <line x1="470" y1="0" x2="505" y2="0" stroke="#0f766e" stroke-width="3"/>
      <text x="512" y="3.5" font-size="11" fill="#5a6b68">文献关注的焦点边（粗线）</text>
    </g>
</svg>
